<svg width="300" height="300" viewBox="0 0 300 300" fill="none" xmlns="http://www.w3.org/2000/svg">
<path d="M204.033 21.2559C197.503 30.0288 193.638 40.9034 193.638 52.6807C193.638 81.7753 217.224 105.362 246.318 105.362C258.096 105.362 268.971 101.497 277.744 94.9658V266.744C277.744 272.819 272.819 277.744 266.744 277.744H32.2559C26.1807 277.744 21.2559 272.819 21.2559 266.744V32.2559C21.2559 26.1807 26.1807 21.2559 32.2559 21.2559H204.033ZM245.488 90.3506L245.346 90.3496C245.267 90.3476 245.189 90.3423 245.111 90.3398C245.237 90.3438 245.362 90.3478 245.488 90.3506ZM244.646 90.3223C244.509 90.3162 244.373 90.3102 244.237 90.3027C244.373 90.3102 244.509 90.3163 244.646 90.3223Z" fill="url(#paint0_linear_150_2)"/>
<rect x="25.0093" y="261.497" width="255.735" height="18.7674" transform="rotate(-45 25.0093 261.497)" fill="white"/>
<circle cx="53" cy="246" r="45.5" fill="white" stroke="white" stroke-width="15"/>
<circle cx="246" cy="53" r="45.5" stroke="white" stroke-width="15"/>
<defs>
<linearGradient id="paint0_linear_150_2" x1="21.2559" y1="277.744" x2="277.744" y2="21.2559" gradientUnits="userSpaceOnUse">
<stop stop-color="white"/>
<stop offset="1" stop-color="white" stop-opacity="0"/>
</linearGradient>
</defs>
</svg>
